<?xml version="1.0" encoding="UTF-8" standalone="no"?>
<!-- Created with Inkscape (http://www.inkscape.org/) -->

<svg
   xmlns:dc="http://purl.org/dc/elements/1.1/"
   xmlns:cc="http://creativecommons.org/ns#"
   xmlns:rdf="http://www.w3.org/1999/02/22-rdf-syntax-ns#"
   xmlns:svg="http://www.w3.org/2000/svg"
   xmlns="http://www.w3.org/2000/svg"
   xmlns:sodipodi="http://sodipodi.sourceforge.net/DTD/sodipodi-0.dtd"
   xmlns:inkscape="http://www.inkscape.org/namespaces/inkscape"
   width="79.398712mm"
   height="142.83084mm"
   viewBox="0 0 281.33403 506.09353"
   id="svg2"
   version="1.1"
   inkscape:version="0.91 r13725"
   sodipodi:docname="logo.svg">
  <defs
     id="defs4" />
  <sodipodi:namedview
     id="base"
     pagecolor="#ffffff"
     bordercolor="#666666"
     borderopacity="1.0"
     inkscape:pageopacity="0"
     inkscape:pageshadow="2"
     inkscape:zoom="1.979899"
     inkscape:cx="240.85385"
     inkscape:cy="192.09006"
     inkscape:document-units="px"
     inkscape:current-layer="layer1"
     showgrid="false"
     fit-margin-top="0"
     fit-margin-left="0"
     fit-margin-right="0"
     fit-margin-bottom="0"
     inkscape:window-width="1360"
     inkscape:window-height="710"
     inkscape:window-x="0"
     inkscape:window-y="25"
     inkscape:window-maximized="1" />
  <metadata
     id="metadata7">
    <rdf:RDF>
      <cc:Work
         rdf:about="">
        <dc:format>image/svg+xml</dc:format>
        <dc:type
           rdf:resource="http://purl.org/dc/dcmitype/StillImage" />
        <dc:title></dc:title>
      </cc:Work>
    </rdf:RDF>
  </metadata>
  <g
     inkscape:groupmode="layer"
     id="layer2"
     inkscape:label="Layer 2"
     transform="translate(-30.569648,-10.13117)" />
  <g
     inkscape:label="Layer 1"
     inkscape:groupmode="layer"
     id="layer1"
     transform="translate(-30.569648,-353.83196)"
     style="display:inline">
    <g
       id="g4372">
      <flowRoot
         transform="translate(-202.85714,249.41508)"
         style="font-style:normal;font-weight:normal;font-size:40px;line-height:125%;font-family:sans-serif;letter-spacing:0px;word-spacing:0px;fill:#000000;fill-opacity:1;stroke:none;stroke-width:1px;stroke-linecap:butt;stroke-linejoin:miter;stroke-opacity:1"
         id="flowRoot3416"
         xml:space="preserve"><flowRegion
           id="flowRegion3418"><rect
             y="281.51859"
             x="315.71429"
             height="107.14286"
             width="138.57143"
             id="rect3420" /></flowRegion><flowPara
           id="flowPara3422" /></flowRoot>      <flowRoot
         transform="translate(-202.85714,-94.285714)"
         style="font-style:normal;font-weight:normal;font-size:40px;line-height:125%;font-family:sans-serif;letter-spacing:0px;word-spacing:0px;fill:#000000;fill-opacity:1;stroke:none;stroke-width:1px;stroke-linecap:butt;stroke-linejoin:miter;stroke-opacity:1"
         id="flowRoot3430"
         xml:space="preserve"><flowRegion
           id="flowRegion3432"><rect
             y="278.33646"
             x="330.31989"
             height="124.24876"
             width="169.70563"
             id="rect3434" /></flowRegion><flowPara
           id="flowPara3436" /></flowRoot>      <path
         sodipodi:nodetypes="cccsssscccc"
         inkscape:connector-curvature="0"
         id="path3350"
         d="m 164.62828,353.83196 98.07677,0 0.81753,3.56868 c 2.62448,118.07746 48.38109,291.96934 48.38109,294.01668 0,0.95343 -3.71629,3.60061 -8.25842,5.88263 -31.40808,15.77981 -60.27915,50.91649 -78.6905,95.76799 -9.83941,23.96958 -19.52807,68.73591 -21.55322,99.58635 l -0.41647,6.34432 -10.80408,0.46344 -27.94693,0.46343 c 0.83875,-172.71427 1.0069,-337.39674 0.39423,-506.09352 z"
         style="fill:#000000" />
      <path
         sodipodi:nodetypes="cccsssscccc"
         inkscape:connector-curvature="0"
         id="path3350-5"
         d="m 177.84504,353.83196 -98.076772,0 -0.81753,3.56868 c -2.62448,118.07746 -48.38109,291.96934 -48.38109,294.01668 0,0.95343 3.71629,3.60061 8.25842,5.88263 31.40808,15.77981 60.27915,50.91649 78.690502,95.76799 9.83941,23.96958 19.52807,68.73591 21.55322,99.58635 l 0.41647,6.34432 10.80408,0.46344 27.94693,0.46343 c -0.83875,-172.71427 -1.0069,-337.39674 -0.39423,-506.09352 z"
         style="display:inline;fill:#000000" />
      <circle
         r="77.142853"
         cy="571.31458"
         cx="171.23665"
         id="path3459"
         style="fill:#ffffff;stroke:#ffffff;stroke-width:3.42857146;stroke-miterlimit:4;stroke-dasharray:none" />
      <g
         id="flowRoot3444"
         style="font-style:normal;font-variant:normal;font-weight:bold;font-stretch:normal;font-size:112.46091461px;line-height:125%;font-family:Calibri;-inkscape-font-specification:'Calibri Bold';letter-spacing:0px;word-spacing:0px;fill:#000000;fill-opacity:1;stroke:none;stroke-width:1px;stroke-linecap:butt;stroke-linejoin:miter;stroke-opacity:1"
         transform="matrix(1.7643408,0,0,1.5473595,-471.99076,-445.42219)">
        <path
           id="path3516"
           d="m 391.88995,687.59875 q 0,1.20808 -0.10983,2.14159 -0.0549,0.87861 -0.21965,1.48264 -0.10982,0.60404 -0.32947,1.04334 -0.16474,0.38439 -0.49422,0.71387 -0.32947,0.27456 -1.04334,0.54912 -0.65895,0.27456 -1.53755,0.4393 -0.82369,0.21965 -1.7572,0.27456 -0.93351,0.10983 -1.81211,0.10983 -3.02019,0 -5.27161,-0.60404 -2.1965,-0.54912 -3.9537,-2.08668 -1.70229,-1.59246 -3.02019,-4.33809 -1.3179,-2.80054 -2.47107,-7.19354 l -6.69933,-23.44766 -10.4883,33.55157 q -0.27456,1.20807 -0.71386,1.86702 -0.4393,0.65896 -1.3179,0.98843 -0.8786,0.32948 -2.36124,0.38439 -1.42773,0.10982 -3.78897,0.10982 -2.58089,0 -4.11844,-0.21965 -1.53755,-0.16473 -2.1965,-0.76877 -0.65895,-0.60404 -0.54913,-1.64738 0.10983,-1.09825 0.76878,-2.80054 l 18.50553,-48.92709 -1.20808,-3.13001 q -1.97685,-5.43635 -3.40458,-6.86407 -1.37281,-1.42773 -3.9537,-1.42773 -1.48264,0 -3.29475,0.4393 -1.75721,0.4393 -2.19651,0.4393 -0.38438,0 -0.60403,-0.16474 -0.21965,-0.21965 -0.38439,-0.76877 -0.16474,-0.54913 -0.27456,-1.48264 -0.0549,-0.93351 -0.0549,-2.41615 0,-2.41616 0.27457,-3.73406 0.27456,-1.37281 0.76877,-1.86702 0.54913,-0.54913 1.53755,-0.82369 1.04334,-0.32948 2.25142,-0.54913 1.26299,-0.21965 2.30632,-0.32947 1.09826,-0.10983 2.30633,-0.10983 3.84388,0 6.80916,0.8786 2.96528,0.8786 5.32652,3.02019 2.36124,2.14159 4.17335,5.71091 1.86703,3.56932 3.5144,8.95075 l 12.90446,42.50231 q 0.49421,1.70229 0.93351,2.74563 0.49421,0.98843 0.98842,1.53755 0.49422,0.54913 1.09826,0.76878 0.60403,0.16474 1.48264,0.16474 0.65895,0 1.15316,-0.0549 0.49421,-0.0549 0.8786,-0.0549 0.38439,0 0.71386,0.16474 0.32948,0.10982 0.49422,0.65895 0.21965,0.49421 0.32947,1.48264 0.10983,0.98843 0.10983,2.69071 z m -54.638,-47.06006 0,0 z"
           inkscape:connector-curvature="0" />
      </g>
      <rect
         y="627.5531"
         x="163.0056"
         height="240.05716"
         width="16.462107"
         id="rect4265"
         style="fill:#ffffff;stroke:#ffffff;stroke-width:1.6198318;stroke-miterlimit:4;stroke-dasharray:none" />
    </g>
  </g>
</svg>
